<?xml version="1.0" encoding="UTF-8" standalone="no"?>
<!DOCTYPE svg PUBLIC "-//W3C//DTD SVG 1.1//EN"
 "http://www.w3.org/Graphics/SVG/1.1/DTD/svg11.dtd">
<!-- Generated by graphviz version 2.36.0 (20140111.2315)
 -->
<!-- Title: G Pages: 1 -->
<svg width="264pt" height="1006pt"
 viewBox="0.00 0.00 264.00 1006.00" xmlns="http://www.w3.org/2000/svg" xmlns:xlink="http://www.w3.org/1999/xlink">
<g id="graph0" class="graph" transform="scale(1 1) rotate(0) translate(4 1002)">
<title>G</title>
<polygon fill="white" stroke="none" points="-4,4 -4,-1002 260,-1002 260,4 -4,4"/>
<!-- n1 -->
<g id="node1" class="node"><title>n1</title>
<g id="a_node1"><a xlink:title="[mlp.lua]:8_">
<ellipse fill="none" stroke="black" cx="128" cy="-191" rx="124.176" ry="58.8803"/>
<text text-anchor="middle" x="128" y="-217.3" font-family="Times,serif" font-size="14.00">Node1</text>
<text text-anchor="start" x="48" y="-202.3" font-family="Times,serif" font-size="14.00">module = nn.Linear(10 &#45;&gt; 1)</text>
<text text-anchor="start" x="48" y="-187.3" font-family="Times,serif" font-size="14.00">gradOutput = {Tensor[1]}</text>
<text text-anchor="start" x="48" y="-172.3" font-family="Times,serif" font-size="14.00">input = {Tensor[10]}</text>
<text text-anchor="middle" x="128" y="-157.3" font-family="Times,serif" font-size="14.00">reverseMap = {}</text>
</a>
</g>
</g>
<!-- n2 -->
<g id="node2" class="node"><title>n2</title>
<g id="a_node2"><a xlink:title="[[C]]:&#45;1_">
<ellipse fill="none" stroke="black" cx="128" cy="-48" rx="113.267" ry="48.1667"/>
<text text-anchor="middle" x="128" y="-66.8" font-family="Times,serif" font-size="14.00">Node2</text>
<text text-anchor="start" x="55.5" y="-51.8" font-family="Times,serif" font-size="14.00">gradOutput = {Tensor[1]}</text>
<text text-anchor="start" x="55.5" y="-36.8" font-family="Times,serif" font-size="14.00">input = {Tensor[1]}</text>
<text text-anchor="middle" x="128" y="-21.8" font-family="Times,serif" font-size="14.00">reverseMap = {}</text>
</a>
</g>
</g>
<!-- n1&#45;&gt;n2 -->
<g id="edge1" class="edge"><title>n1&#45;&gt;n2</title>
<path fill="none" stroke="black" d="M128,-132.243C128,-123.7 128,-114.899 128,-106.364"/>
<polygon fill="black" stroke="black" points="131.5,-106.121 128,-96.1209 124.5,-106.121 131.5,-106.121"/>
</g>
<!-- n3 -->
<g id="node3" class="node"><title>n3</title>
<g id="a_node3"><a xlink:title="[mlp.lua]:8_">
<ellipse fill="none" stroke="black" cx="128" cy="-345" rx="118.13" ry="58.8803"/>
<text text-anchor="middle" x="128" y="-371.3" font-family="Times,serif" font-size="14.00">Node3</text>
<text text-anchor="start" x="52.5" y="-356.3" font-family="Times,serif" font-size="14.00">module = nn.Tanh</text>
<text text-anchor="start" x="52.5" y="-341.3" font-family="Times,serif" font-size="14.00">gradOutput = {Tensor[10]}</text>
<text text-anchor="start" x="52.5" y="-326.3" font-family="Times,serif" font-size="14.00">input = {Tensor[10]}</text>
<text text-anchor="middle" x="128" y="-311.3" font-family="Times,serif" font-size="14.00">reverseMap = {}</text>
</a>
</g>
</g>
<!-- n3&#45;&gt;n1 -->
<g id="edge2" class="edge"><title>n3&#45;&gt;n1</title>
<path fill="none" stroke="black" d="M128,-286.102C128,-277.539 128,-268.651 128,-259.907"/>
<polygon fill="black" stroke="black" points="131.5,-259.737 128,-249.737 124.5,-259.737 131.5,-259.737"/>
</g>
<!-- n4 -->
<g id="node4" class="node"><title>n4</title>
<g id="a_node4"><a xlink:title="[mlp.lua]:8_">
<ellipse fill="none" stroke="black" cx="128" cy="-499" rx="128.54" ry="58.8803"/>
<text text-anchor="middle" x="128" y="-525.3" font-family="Times,serif" font-size="14.00">Node4</text>
<text text-anchor="start" x="45" y="-510.3" font-family="Times,serif" font-size="14.00">module = nn.Linear(10 &#45;&gt; 10)</text>
<text text-anchor="start" x="45" y="-495.3" font-family="Times,serif" font-size="14.00">gradOutput = {Tensor[10]}</text>
<text text-anchor="start" x="45" y="-480.3" font-family="Times,serif" font-size="14.00">input = {Tensor[10]}</text>
<text text-anchor="middle" x="128" y="-465.3" font-family="Times,serif" font-size="14.00">reverseMap = {}</text>
</a>
</g>
</g>
<!-- n4&#45;&gt;n3 -->
<g id="edge3" class="edge"><title>n4&#45;&gt;n3</title>
<path fill="none" stroke="black" d="M128,-440.102C128,-431.539 128,-422.651 128,-413.907"/>
<polygon fill="black" stroke="black" points="131.5,-413.737 128,-403.737 124.5,-413.737 131.5,-413.737"/>
</g>
<!-- n5 -->
<g id="node5" class="node"><title>n5</title>
<g id="a_node5"><a xlink:title="[mlp.lua]:8_">
<ellipse fill="none" stroke="black" cx="128" cy="-653" rx="118.13" ry="58.8803"/>
<text text-anchor="middle" x="128" y="-679.3" font-family="Times,serif" font-size="14.00">Node5</text>
<text text-anchor="start" x="52.5" y="-664.3" font-family="Times,serif" font-size="14.00">module = nn.Tanh</text>
<text text-anchor="start" x="52.5" y="-649.3" font-family="Times,serif" font-size="14.00">gradOutput = {Tensor[10]}</text>
<text text-anchor="start" x="52.5" y="-634.3" font-family="Times,serif" font-size="14.00">input = {Tensor[10]}</text>
<text text-anchor="middle" x="128" y="-619.3" font-family="Times,serif" font-size="14.00">reverseMap = {}</text>
</a>
</g>
</g>
<!-- n5&#45;&gt;n4 -->
<g id="edge4" class="edge"><title>n5&#45;&gt;n4</title>
<path fill="none" stroke="black" d="M128,-594.102C128,-585.539 128,-576.651 128,-567.907"/>
<polygon fill="black" stroke="black" points="131.5,-567.737 128,-557.737 124.5,-567.737 131.5,-567.737"/>
</g>
<!-- n6 -->
<g id="node6" class="node"><title>n6</title>
<g id="a_node6"><a xlink:title="[mlp.lua]:7_">
<ellipse fill="none" stroke="black" cx="128" cy="-807" rx="128.54" ry="58.8803"/>
<text text-anchor="middle" x="128" y="-833.3" font-family="Times,serif" font-size="14.00">Node6</text>
<text text-anchor="start" x="45" y="-818.3" font-family="Times,serif" font-size="14.00">module = nn.Linear(20 &#45;&gt; 10)</text>
<text text-anchor="start" x="45" y="-803.3" font-family="Times,serif" font-size="14.00">gradOutput = {Tensor[10]}</text>
<text text-anchor="start" x="45" y="-788.3" font-family="Times,serif" font-size="14.00">input = {Tensor[20]}</text>
<text text-anchor="middle" x="128" y="-773.3" font-family="Times,serif" font-size="14.00">reverseMap = {}</text>
</a>
</g>
</g>
<!-- n6&#45;&gt;n5 -->
<g id="edge5" class="edge"><title>n6&#45;&gt;n5</title>
<path fill="none" stroke="black" d="M128,-748.102C128,-739.539 128,-730.651 128,-721.907"/>
<polygon fill="black" stroke="black" points="131.5,-721.737 128,-711.737 124.5,-721.737 131.5,-721.737"/>
</g>
<!-- n7 -->
<g id="node7" class="node"><title>n7</title>
<g id="a_node7"><a xlink:title="[[C]]:&#45;1_">
<ellipse fill="none" stroke="black" cx="128" cy="-950" rx="118.13" ry="48.1667"/>
<text text-anchor="middle" x="128" y="-968.8" font-family="Times,serif" font-size="14.00">Node7</text>
<text text-anchor="start" x="52.5" y="-953.8" font-family="Times,serif" font-size="14.00">gradOutput = {Tensor[20]}</text>
<text text-anchor="start" x="52.5" y="-938.8" font-family="Times,serif" font-size="14.00">input = {Tensor[20]}</text>
<text text-anchor="middle" x="128" y="-923.8" font-family="Times,serif" font-size="14.00">reverseMap = {}</text>
</a>
</g>
</g>
<!-- n7&#45;&gt;n6 -->
<g id="edge6" class="edge"><title>n7&#45;&gt;n6</title>
<path fill="none" stroke="black" d="M128,-901.657C128,-893.376 128,-884.617 128,-875.909"/>
<polygon fill="black" stroke="black" points="131.5,-875.744 128,-865.744 124.5,-875.744 131.5,-875.744"/>
</g>
</g>
</svg>
