<?xml version="1.0" encoding="UTF-8" standalone="no"?>
<!DOCTYPE svg PUBLIC "-//W3C//DTD SVG 1.1//EN"
 "http://www.w3.org/Graphics/SVG/1.1/DTD/svg11.dtd">
<!-- Generated by graphviz version 2.36.0 (20140111.2315)
 -->
<!-- Title: G Pages: 1 -->
<svg width="592pt" height="836pt"
 viewBox="0.00 0.00 592.00 836.00" xmlns="http://www.w3.org/2000/svg" xmlns:xlink="http://www.w3.org/1999/xlink">
<g id="graph0" class="graph" transform="scale(1 1) rotate(0) translate(4 832)">
<title>G</title>
<polygon fill="white" stroke="none" points="-4,4 -4,-832 588,-832 588,4 -4,4"/>
<!-- n1 -->
<g id="node1" class="node"><title>n1</title>
<g id="a_node1"><a xlink:title="[rnn.lua]:27_">
<ellipse fill="none" stroke="black" cx="212" cy="-160" rx="124.176" ry="48.1667"/>
<text text-anchor="middle" x="212" y="-178.8" font-family="Times,serif" font-size="14.00">rnn_net2 (1)</text>
<text text-anchor="start" x="132" y="-163.8" font-family="Times,serif" font-size="14.00">module = nn.gModule</text>
<text text-anchor="start" x="132" y="-148.8" font-family="Times,serif" font-size="14.00">mapindex = {Node3,Node4}</text>
<text text-anchor="middle" x="212" y="-133.8" font-family="Times,serif" font-size="14.00">reverseMap = {}</text>
</a>
</g>
</g>
<!-- n2 -->
<g id="node2" class="node"><title>n2</title>
<g id="a_node2"><a xlink:title="[[C]]:&#45;1_">
<ellipse fill="none" stroke="black" cx="212" cy="-38" rx="77.1743" ry="37.4533"/>
<text text-anchor="middle" x="212" y="-49.3" font-family="Times,serif" font-size="14.00">Node2</text>
<text text-anchor="start" x="165" y="-34.3" font-family="Times,serif" font-size="14.00">input = {}</text>
<text text-anchor="middle" x="212" y="-19.3" font-family="Times,serif" font-size="14.00">reverseMap = {}</text>
</a>
</g>
</g>
<!-- n1&#45;&gt;n2 -->
<g id="edge1" class="edge"><title>n1&#45;&gt;n2</title>
<path fill="none" stroke="black" d="M212,-111.573C212,-103.096 212,-94.269 212,-85.8099"/>
<polygon fill="black" stroke="black" points="215.5,-85.7224 212,-75.7224 208.5,-85.7224 215.5,-85.7224"/>
</g>
<!-- n3 -->
<g id="node3" class="node"><title>n3</title>
<g id="a_node3"><a xlink:title="[rnn.lua]:24_">
<ellipse fill="none" stroke="black" cx="94" cy="-292" rx="94.0678" ry="37.4533"/>
<text text-anchor="middle" x="94" y="-303.3" font-family="Times,serif" font-size="14.00">input2 (3)</text>
<text text-anchor="start" x="35.5" y="-288.3" font-family="Times,serif" font-size="14.00">module = nn.Identity</text>
<text text-anchor="middle" x="94" y="-273.3" font-family="Times,serif" font-size="14.00">reverseMap = {}</text>
</a>
</g>
</g>
<!-- n3&#45;&gt;n1 -->
<g id="edge2" class="edge"><title>n3&#45;&gt;n1</title>
<path fill="none" stroke="black" d="M125.312,-256.504C137.406,-243.18 151.507,-227.645 164.779,-213.024"/>
<polygon fill="black" stroke="black" points="167.499,-215.234 171.628,-205.477 162.316,-210.529 167.499,-215.234"/>
</g>
<!-- n4 -->
<g id="node4" class="node"><title>n4</title>
<g id="a_node4"><a xlink:title="[rnn.lua]:26_">
<ellipse fill="none" stroke="black" cx="330" cy="-292" rx="124.176" ry="48.1667"/>
<text text-anchor="middle" x="330" y="-310.8" font-family="Times,serif" font-size="14.00">rnn_net1 (4)</text>
<text text-anchor="start" x="250" y="-295.8" font-family="Times,serif" font-size="14.00">module = nn.gModule</text>
<text text-anchor="start" x="250" y="-280.8" font-family="Times,serif" font-size="14.00">mapindex = {Node6,Node7}</text>
<text text-anchor="middle" x="330" y="-265.8" font-family="Times,serif" font-size="14.00">reverseMap = {}</text>
</a>
</g>
</g>
<!-- n4&#45;&gt;n1 -->
<g id="edge3" class="edge"><title>n4&#45;&gt;n1</title>
<path fill="none" stroke="black" d="M289.391,-246.261C279.749,-235.639 269.38,-224.215 259.463,-213.289"/>
<polygon fill="black" stroke="black" points="261.996,-210.873 252.684,-205.821 256.813,-215.578 261.996,-210.873"/>
</g>
<!-- n5 -->
<g id="node5" class="node"><title>n5</title>
<g id="a_node5"><a xlink:title="[[C]]:&#45;1_&#45;2">
<ellipse fill="none" stroke="black" cx="94" cy="-424" rx="77.1743" ry="48.1667"/>
<text text-anchor="middle" x="94" y="-442.8" font-family="Times,serif" font-size="14.00">Node5</text>
<text text-anchor="start" x="47" y="-427.8" font-family="Times,serif" font-size="14.00">selectindex = 2</text>
<text text-anchor="start" x="47" y="-412.8" font-family="Times,serif" font-size="14.00">reverseMap = {}</text>
<text text-anchor="middle" x="94" y="-397.8" font-family="Times,serif" font-size="14.00">input = {}</text>
</a>
</g>
</g>
<!-- n5&#45;&gt;n3 -->
<g id="edge4" class="edge"><title>n5&#45;&gt;n3</title>
<path fill="none" stroke="black" d="M94,-375.699C94,-364.138 94,-351.768 94,-340.211"/>
<polygon fill="black" stroke="black" points="97.5001,-339.872 94,-329.872 90.5001,-339.873 97.5001,-339.872"/>
</g>
<!-- n6 -->
<g id="node6" class="node"><title>n6</title>
<g id="a_node6"><a xlink:title="[rnn.lua]:23_">
<ellipse fill="none" stroke="black" cx="284" cy="-424" rx="94.0678" ry="37.4533"/>
<text text-anchor="middle" x="284" y="-435.3" font-family="Times,serif" font-size="14.00">input1 (6)</text>
<text text-anchor="start" x="225.5" y="-420.3" font-family="Times,serif" font-size="14.00">module = nn.Identity</text>
<text text-anchor="middle" x="284" y="-405.3" font-family="Times,serif" font-size="14.00">reverseMap = {}</text>
</a>
</g>
</g>
<!-- n6&#45;&gt;n4 -->
<g id="edge5" class="edge"><title>n6&#45;&gt;n4</title>
<path fill="none" stroke="black" d="M296.814,-386.788C300.923,-375.173 305.577,-362.022 310.071,-349.321"/>
<polygon fill="black" stroke="black" points="313.429,-350.324 313.465,-339.729 306.83,-347.989 313.429,-350.324"/>
</g>
<!-- n7 -->
<g id="node7" class="node"><title>n7</title>
<g id="a_node7"><a xlink:title="[rnn.lua]:25_">
<ellipse fill="none" stroke="black" cx="490" cy="-424" rx="94.0678" ry="37.4533"/>
<text text-anchor="middle" x="490" y="-435.3" font-family="Times,serif" font-size="14.00">prev_h (7)</text>
<text text-anchor="start" x="431.5" y="-420.3" font-family="Times,serif" font-size="14.00">module = nn.Identity</text>
<text text-anchor="middle" x="490" y="-405.3" font-family="Times,serif" font-size="14.00">reverseMap = {}</text>
</a>
</g>
</g>
<!-- n7&#45;&gt;n4 -->
<g id="edge6" class="edge"><title>n7&#45;&gt;n4</title>
<path fill="none" stroke="black" d="M449.211,-389.859C431.39,-375.38 410.12,-358.098 390.513,-342.167"/>
<polygon fill="black" stroke="black" points="392.485,-339.26 382.517,-335.67 388.071,-344.693 392.485,-339.26"/>
</g>
<!-- n8 -->
<g id="node8" class="node"><title>n8</title>
<g id="a_node8"><a xlink:title="[[C]]:&#45;1_ split at [...chen/torch/install/share/lua/5.1/nngraph/gmodule.lua]:96&#45;mnode">
<ellipse fill="none" stroke="black" cx="284" cy="-678" rx="80.415" ry="37.4533"/>
<text text-anchor="middle" x="284" y="-689.3" font-family="Times,serif" font-size="14.00">Node8</text>
<text text-anchor="start" x="235" y="-674.3" font-family="Times,serif" font-size="14.00">nSplitOutputs = 3</text>
<text text-anchor="middle" x="284" y="-659.3" font-family="Times,serif" font-size="14.00">reverseMap = {}</text>
</a>
</g>
</g>
<!-- n8&#45;&gt;n5 -->
<g id="edge7" class="edge"><title>n8&#45;&gt;n5</title>
<path fill="none" stroke="black" d="M241.006,-645.91C226.029,-633.847 209.79,-619.264 197,-604 165.158,-565.997 137.663,-516.822 119.11,-479.633"/>
<polygon fill="black" stroke="black" points="122.146,-477.875 114.588,-470.45 115.866,-480.968 122.146,-477.875"/>
</g>
<!-- n9 -->
<g id="node9" class="node"><title>n9</title>
<g id="a_node9"><a xlink:title="[[C]]:&#45;1_&#45;1">
<ellipse fill="none" stroke="black" cx="284" cy="-556" rx="77.1743" ry="48.1667"/>
<text text-anchor="middle" x="284" y="-574.8" font-family="Times,serif" font-size="14.00">Node9</text>
<text text-anchor="start" x="237" y="-559.8" font-family="Times,serif" font-size="14.00">selectindex = 1</text>
<text text-anchor="start" x="237" y="-544.8" font-family="Times,serif" font-size="14.00">reverseMap = {}</text>
<text text-anchor="middle" x="284" y="-529.8" font-family="Times,serif" font-size="14.00">input = {}</text>
</a>
</g>
</g>
<!-- n8&#45;&gt;n9 -->
<g id="edge11" class="edge"><title>n8&#45;&gt;n9</title>
<path fill="none" stroke="black" d="M284,-640.344C284,-632.219 284,-623.418 284,-614.683"/>
<polygon fill="black" stroke="black" points="287.5,-614.503 284,-604.503 280.5,-614.503 287.5,-614.503"/>
</g>
<!-- n10 -->
<g id="node10" class="node"><title>n10</title>
<g id="a_node10"><a xlink:title="[[C]]:&#45;1_&#45;3">
<ellipse fill="none" stroke="black" cx="474" cy="-556" rx="77.1743" ry="48.1667"/>
<text text-anchor="middle" x="474" y="-574.8" font-family="Times,serif" font-size="14.00">Node10</text>
<text text-anchor="start" x="427" y="-559.8" font-family="Times,serif" font-size="14.00">selectindex = 3</text>
<text text-anchor="start" x="427" y="-544.8" font-family="Times,serif" font-size="14.00">reverseMap = {}</text>
<text text-anchor="middle" x="474" y="-529.8" font-family="Times,serif" font-size="14.00">input = {}</text>
</a>
</g>
</g>
<!-- n8&#45;&gt;n10 -->
<g id="edge12" class="edge"><title>n8&#45;&gt;n10</title>
<path fill="none" stroke="black" d="M330.966,-647.337C355.353,-631.935 385.47,-612.914 411.769,-596.304"/>
<polygon fill="black" stroke="black" points="413.941,-599.071 420.527,-590.772 410.203,-593.153 413.941,-599.071"/>
</g>
<!-- n9&#45;&gt;n6 -->
<g id="edge8" class="edge"><title>n9&#45;&gt;n6</title>
<path fill="none" stroke="black" d="M284,-507.699C284,-496.138 284,-483.768 284,-472.211"/>
<polygon fill="black" stroke="black" points="287.5,-471.872 284,-461.872 280.5,-471.873 287.5,-471.872"/>
</g>
<!-- n10&#45;&gt;n7 -->
<g id="edge9" class="edge"><title>n10&#45;&gt;n7</title>
<path fill="none" stroke="black" d="M479.822,-507.699C481.273,-495.908 482.828,-483.275 484.274,-471.521"/>
<polygon fill="black" stroke="black" points="487.764,-471.815 485.512,-461.462 480.817,-470.96 487.764,-471.815"/>
</g>
<!-- n11 -->
<g id="node11" class="node"><title>n11</title>
<g id="a_node11"><a xlink:title="[[C]]:&#45;1_">
<ellipse fill="none" stroke="black" cx="284" cy="-790" rx="77.1743" ry="37.4533"/>
<text text-anchor="middle" x="284" y="-801.3" font-family="Times,serif" font-size="14.00">Node11</text>
<text text-anchor="start" x="237" y="-786.3" font-family="Times,serif" font-size="14.00">input = {}</text>
<text text-anchor="middle" x="284" y="-771.3" font-family="Times,serif" font-size="14.00">reverseMap = {}</text>
</a>
</g>
</g>
<!-- n11&#45;&gt;n8 -->
<g id="edge10" class="edge"><title>n11&#45;&gt;n8</title>
<path fill="none" stroke="black" d="M284,-752.372C284,-743.927 284,-734.829 284,-726.011"/>
<polygon fill="black" stroke="black" points="287.5,-725.843 284,-715.844 280.5,-725.844 287.5,-725.843"/>
</g>
</g>
</svg>
