<?xml version="1.0" encoding="UTF-8" standalone="no"?>
<!DOCTYPE svg PUBLIC "-//W3C//DTD SVG 1.1//EN"
 "http://www.w3.org/Graphics/SVG/1.1/DTD/svg11.dtd">
<!-- Generated by graphviz version 2.36.0 (20140111.2315)
 -->
<!-- Title: G Pages: 1 -->
<svg width="579pt" height="908pt"
 viewBox="0.00 0.00 579.00 908.00" xmlns="http://www.w3.org/2000/svg" xmlns:xlink="http://www.w3.org/1999/xlink">
<g id="graph0" class="graph" transform="scale(1 1) rotate(0) translate(4 904)">
<title>G</title>
<polygon fill="white" stroke="none" points="-4,4 -4,-904 575,-904 575,4 -4,4"/>
<!-- n1 -->
<g id="node1" class="node"><title>n1</title>
<g id="a_node1"><a xlink:title="[rnn.lua]:12_">
<ellipse fill="none" stroke="black" cx="285" cy="-150" rx="84.2187" ry="37.4533"/>
<text text-anchor="middle" x="285" y="-161.3" font-family="Times,serif" font-size="14.00">next_h (1)</text>
<text text-anchor="start" x="233.5" y="-146.3" font-family="Times,serif" font-size="14.00">module = nn.Tanh</text>
<text text-anchor="middle" x="285" y="-131.3" font-family="Times,serif" font-size="14.00">reverseMap = {}</text>
</a>
</g>
</g>
<!-- n2 -->
<g id="node2" class="node"><title>n2</title>
<g id="a_node2"><a xlink:title="[[C]]:&#45;1_">
<ellipse fill="none" stroke="black" cx="285" cy="-38" rx="77.1743" ry="37.4533"/>
<text text-anchor="middle" x="285" y="-49.3" font-family="Times,serif" font-size="14.00">Node2</text>
<text text-anchor="start" x="238" y="-34.3" font-family="Times,serif" font-size="14.00">input = {}</text>
<text text-anchor="middle" x="285" y="-19.3" font-family="Times,serif" font-size="14.00">reverseMap = {}</text>
</a>
</g>
</g>
<!-- n1&#45;&gt;n2 -->
<g id="edge1" class="edge"><title>n1&#45;&gt;n2</title>
<path fill="none" stroke="black" d="M285,-112.372C285,-103.927 285,-94.8286 285,-86.0106"/>
<polygon fill="black" stroke="black" points="288.5,-85.8435 285,-75.8435 281.5,-85.8435 288.5,-85.8435"/>
</g>
<!-- n3 -->
<g id="node3" class="node"><title>n3</title>
<g id="a_node3"><a xlink:title="[rnn.lua]:11_">
<ellipse fill="none" stroke="black" cx="285" cy="-272" rx="124.176" ry="48.1667"/>
<text text-anchor="middle" x="285" y="-290.8" font-family="Times,serif" font-size="14.00">added_h (3)</text>
<text text-anchor="start" x="205" y="-275.8" font-family="Times,serif" font-size="14.00">module = nn.CAddTable</text>
<text text-anchor="start" x="205" y="-260.8" font-family="Times,serif" font-size="14.00">mapindex = {Node4,Node5}</text>
<text text-anchor="middle" x="285" y="-245.8" font-family="Times,serif" font-size="14.00">reverseMap = {}</text>
</a>
</g>
</g>
<!-- n3&#45;&gt;n1 -->
<g id="edge2" class="edge"><title>n3&#45;&gt;n1</title>
<path fill="none" stroke="black" d="M285,-223.573C285,-215.096 285,-206.269 285,-197.81"/>
<polygon fill="black" stroke="black" points="288.5,-197.722 285,-187.722 281.5,-197.722 288.5,-197.722"/>
</g>
<!-- n4 -->
<g id="node4" class="node"><title>n4</title>
<g id="a_node4"><a xlink:title="[rnn.lua]:9_">
<ellipse fill="none" stroke="black" cx="138" cy="-394" rx="138.389" ry="37.4533"/>
<text text-anchor="middle" x="138" y="-405.3" font-family="Times,serif" font-size="14.00">i2h (4)</text>
<text text-anchor="start" x="48" y="-390.3" font-family="Times,serif" font-size="14.00">module = nn.Linear(128 &#45;&gt; 128)</text>
<text text-anchor="middle" x="138" y="-375.3" font-family="Times,serif" font-size="14.00">reverseMap = {}</text>
</a>
</g>
</g>
<!-- n4&#45;&gt;n3 -->
<g id="edge3" class="edge"><title>n4&#45;&gt;n3</title>
<path fill="none" stroke="black" d="M180.518,-358.291C194.255,-347.077 209.759,-334.421 224.537,-322.358"/>
<polygon fill="black" stroke="black" points="227.123,-324.765 232.656,-315.73 222.696,-319.342 227.123,-324.765"/>
</g>
<!-- n5 -->
<g id="node5" class="node"><title>n5</title>
<g id="a_node5"><a xlink:title="[rnn.lua]:10_">
<ellipse fill="none" stroke="black" cx="433" cy="-394" rx="138.389" ry="37.4533"/>
<text text-anchor="middle" x="433" y="-405.3" font-family="Times,serif" font-size="14.00">h2h (5)</text>
<text text-anchor="start" x="343" y="-390.3" font-family="Times,serif" font-size="14.00">module = nn.Linear(128 &#45;&gt; 128)</text>
<text text-anchor="middle" x="433" y="-375.3" font-family="Times,serif" font-size="14.00">reverseMap = {}</text>
</a>
</g>
</g>
<!-- n5&#45;&gt;n3 -->
<g id="edge4" class="edge"><title>n5&#45;&gt;n3</title>
<path fill="none" stroke="black" d="M390.192,-358.291C376.362,-347.077 360.753,-334.421 345.875,-322.358"/>
<polygon fill="black" stroke="black" points="347.672,-319.309 337.7,-315.73 343.264,-324.747 347.672,-319.309"/>
</g>
<!-- n6 -->
<g id="node6" class="node"><title>n6</title>
<g id="a_node6"><a xlink:title="[rnn.lua]:6_">
<ellipse fill="none" stroke="black" cx="160" cy="-506" rx="94.0678" ry="37.4533"/>
<text text-anchor="middle" x="160" y="-517.3" font-family="Times,serif" font-size="14.00">input (6)</text>
<text text-anchor="start" x="101.5" y="-502.3" font-family="Times,serif" font-size="14.00">module = nn.Identity</text>
<text text-anchor="middle" x="160" y="-487.3" font-family="Times,serif" font-size="14.00">reverseMap = {}</text>
</a>
</g>
</g>
<!-- n6&#45;&gt;n4 -->
<g id="edge5" class="edge"><title>n6&#45;&gt;n4</title>
<path fill="none" stroke="black" d="M152.674,-468.372C150.949,-459.744 149.087,-450.435 147.288,-441.439"/>
<polygon fill="black" stroke="black" points="150.687,-440.588 145.294,-431.468 143.823,-441.961 150.687,-440.588"/>
</g>
<!-- n7 -->
<g id="node7" class="node"><title>n7</title>
<g id="a_node7"><a xlink:title="[rnn.lua]:7_">
<ellipse fill="none" stroke="black" cx="410" cy="-506" rx="94.0678" ry="37.4533"/>
<text text-anchor="middle" x="410" y="-517.3" font-family="Times,serif" font-size="14.00">prev_h (7)</text>
<text text-anchor="start" x="351.5" y="-502.3" font-family="Times,serif" font-size="14.00">module = nn.Identity</text>
<text text-anchor="middle" x="410" y="-487.3" font-family="Times,serif" font-size="14.00">reverseMap = {}</text>
</a>
</g>
</g>
<!-- n7&#45;&gt;n5 -->
<g id="edge6" class="edge"><title>n7&#45;&gt;n5</title>
<path fill="none" stroke="black" d="M417.659,-468.372C419.463,-459.744 421.409,-450.435 423.29,-441.439"/>
<polygon fill="black" stroke="black" points="426.754,-441.973 425.375,-431.468 419.902,-440.54 426.754,-441.973"/>
</g>
<!-- n8 -->
<g id="node8" class="node"><title>n8</title>
<g id="a_node8"><a xlink:title="[[C]]:&#45;1_&#45;1">
<ellipse fill="none" stroke="black" cx="168" cy="-628" rx="77.1743" ry="48.1667"/>
<text text-anchor="middle" x="168" y="-646.8" font-family="Times,serif" font-size="14.00">Node8</text>
<text text-anchor="start" x="121" y="-631.8" font-family="Times,serif" font-size="14.00">selectindex = 1</text>
<text text-anchor="start" x="121" y="-616.8" font-family="Times,serif" font-size="14.00">reverseMap = {}</text>
<text text-anchor="middle" x="168" y="-601.8" font-family="Times,serif" font-size="14.00">input = {}</text>
</a>
</g>
</g>
<!-- n8&#45;&gt;n6 -->
<g id="edge7" class="edge"><title>n8&#45;&gt;n6</title>
<path fill="none" stroke="black" d="M164.861,-579.917C164.289,-571.328 163.691,-562.368 163.119,-553.787"/>
<polygon fill="black" stroke="black" points="166.595,-553.304 162.437,-543.559 159.61,-553.77 166.595,-553.304"/>
</g>
<!-- n9 -->
<g id="node9" class="node"><title>n9</title>
<g id="a_node9"><a xlink:title="[[C]]:&#45;1_&#45;2">
<ellipse fill="none" stroke="black" cx="358" cy="-628" rx="77.1743" ry="48.1667"/>
<text text-anchor="middle" x="358" y="-646.8" font-family="Times,serif" font-size="14.00">Node9</text>
<text text-anchor="start" x="311" y="-631.8" font-family="Times,serif" font-size="14.00">selectindex = 2</text>
<text text-anchor="start" x="311" y="-616.8" font-family="Times,serif" font-size="14.00">reverseMap = {}</text>
<text text-anchor="middle" x="358" y="-601.8" font-family="Times,serif" font-size="14.00">input = {}</text>
</a>
</g>
</g>
<!-- n9&#45;&gt;n7 -->
<g id="edge8" class="edge"><title>n9&#45;&gt;n7</title>
<path fill="none" stroke="black" d="M377.807,-581.291C381.897,-571.852 386.204,-561.913 390.291,-552.483"/>
<polygon fill="black" stroke="black" points="393.523,-553.827 394.288,-543.26 387.1,-551.043 393.523,-553.827"/>
</g>
<!-- n10 -->
<g id="node10" class="node"><title>n10</title>
<g id="a_node10"><a xlink:title="[[C]]:&#45;1_ split at [...chen/torch/install/share/lua/5.1/nngraph/gmodule.lua]:96&#45;mnode">
<ellipse fill="none" stroke="black" cx="255" cy="-750" rx="80.415" ry="37.4533"/>
<text text-anchor="middle" x="255" y="-761.3" font-family="Times,serif" font-size="14.00">Node10</text>
<text text-anchor="start" x="206" y="-746.3" font-family="Times,serif" font-size="14.00">nSplitOutputs = 2</text>
<text text-anchor="middle" x="255" y="-731.3" font-family="Times,serif" font-size="14.00">reverseMap = {}</text>
</a>
</g>
</g>
<!-- n10&#45;&gt;n8 -->
<g id="edge9" class="edge"><title>n10&#45;&gt;n8</title>
<path fill="none" stroke="black" d="M229.836,-714.291C222.163,-703.708 213.559,-691.84 205.264,-680.398"/>
<polygon fill="black" stroke="black" points="207.999,-678.208 199.296,-672.166 202.332,-682.317 207.999,-678.208"/>
</g>
<!-- n10&#45;&gt;n9 -->
<g id="edge10" class="edge"><title>n10&#45;&gt;n9</title>
<path fill="none" stroke="black" d="M284.24,-714.934C293.9,-703.679 304.854,-690.917 315.309,-678.737"/>
<polygon fill="black" stroke="black" points="318.231,-680.706 322.089,-670.839 312.92,-676.147 318.231,-680.706"/>
</g>
<!-- n11 -->
<g id="node11" class="node"><title>n11</title>
<g id="a_node11"><a xlink:title="[[C]]:&#45;1_">
<ellipse fill="none" stroke="black" cx="255" cy="-862" rx="77.1743" ry="37.4533"/>
<text text-anchor="middle" x="255" y="-873.3" font-family="Times,serif" font-size="14.00">Node11</text>
<text text-anchor="start" x="208" y="-858.3" font-family="Times,serif" font-size="14.00">input = {}</text>
<text text-anchor="middle" x="255" y="-843.3" font-family="Times,serif" font-size="14.00">reverseMap = {}</text>
</a>
</g>
</g>
<!-- n11&#45;&gt;n10 -->
<g id="edge11" class="edge"><title>n11&#45;&gt;n10</title>
<path fill="none" stroke="black" d="M255,-824.372C255,-815.927 255,-806.829 255,-798.011"/>
<polygon fill="black" stroke="black" points="258.5,-797.843 255,-787.844 251.5,-797.844 258.5,-797.843"/>
</g>
</g>
</svg>
